<svg width="48" height="48.00004" xmlns="http://www.w3.org/2000/svg">

 <g>
  <title>background</title>
  <rect fill="none" id="canvas_background" height="402" width="582" y="-1" x="-1"/>
 </g>
 <g>
  <title>Layer 1</title>
  <ellipse stroke="#000" ry="18.184358" rx="18.184358" id="svg_3" cy="23.869083" cx="24.293297" stroke-width="0" fill="#fff"/>
  <path stroke="null" id="svg_2" fill="#5F83CF" d="m24.007785,0.107533c-13.203538,0 -23.900272,10.696734 -23.900272,23.884702c0,13.203538 10.696734,23.900272 23.900272,23.900272c13.187968,0 23.884702,-10.696734 23.884702,-23.900272c0,-13.187968 -10.696734,-23.884702 -23.884702,-23.884702zm9.061862,13.452661c0,0 -0.77851,-0.03114 -3.456587,0c-2.615795,0.03114 -2.646936,1.992987 -2.646936,2.086408l-0.03114,4.966897l6.134663,0.124562l-0.903072,6.337075l-5.20045,0l0.068198,13.403304l-6.657666,0.002647l-0.059011,-13.37481l-5.527424,-0.03114l0.140132,-6.461637l5.449573,0l0,-4.671063c0.01557,-0.498247 0.062281,-0.996493 0.124562,-1.49474c0.140132,-1.089915 0.435966,-2.179829 0.949783,-3.160753c0.451536,-0.840791 1.074344,-1.588161 1.837285,-2.164259c0.77851,-0.591668 1.697153,-0.996493 2.646936,-1.245617c0.669519,-0.186843 1.354608,-0.311404 2.039697,-0.326974c0.887502,-0.03114 4.375229,0.077851 5.247161,0.093421l-0.155702,5.91668z"/>
 </g>
</svg>