<svg width="64" height="64" xmlns="http://www.w3.org/2000/svg">

 <g>
  <title>background</title>
  <rect fill="none" id="canvas_background" height="402" width="582" y="-1" x="-1"/>
 </g>
 <g>
  <title>Layer 1</title>
  <path id="svg_3" fill="#24292e" d="m32,0c-17.673,0 -32,14.327 -32,32c0,17.673 14.327,32 32,32s32,-14.327 32,-32c0,-17.673 -14.327,-32 -32,-32z"/>
  <path id="Cat_3_" fill="#FFFFFF" d="m38.592,50.166l-4.84,0l-4.844,0c0,0 0.014,-2.874 0,-4.844c-6.629,1.428 -8.479,-3.633 -8.479,-3.633c-1.21,-2.423 -2.423,-3.633 -2.423,-3.633c-2.423,-1.438 0,-1.21 0,-1.21c2.423,0 3.633,2.423 3.633,2.423c2.126,3.609 5.908,3.028 7.266,2.423c0,-1.21 0.53,-3.042 1.21,-3.633c-5.29,-0.595 -9.693,-3.633 -9.693,-9.689s1.216,-7.266 2.427,-8.479c-0.244,-0.597 -1.259,-2.805 0.037,-6.056c0,0 2.38,0 4.803,3.633c1.2,-1.2 4.844,-1.21 6.056,-1.21c1.208,0 4.854,0.01 6.054,1.21c2.423,-3.633 4.809,-3.633 4.809,-3.633c1.296,3.251 0.282,5.459 0.037,6.056c1.21,1.21 2.423,2.423 2.423,8.479s-4.397,9.092 -9.689,9.689c0.682,0.591 1.21,2.675 1.21,3.633l0.003,8.474l0,0z"/>
 </g>
</svg>